<svg width="437" height="630" viewBox="0 0 437 630" fill="none" xmlns="http://www.w3.org/2000/svg">
<g clip-path="url(#clip0_1_1265)">
<path d="M307.988 500.865L295.311 508.329V515.794L317.683 503.104V476.979L311.717 480.711V495.64L275.922 475.486V434.431L288.599 441.896L295.311 438.164L272.939 424.728L250.567 438.164L256.532 441.896L269.956 434.431V475.486L234.16 495.64V480.711L228.195 476.979V503.104L250.567 515.794V508.329L237.143 500.865L272.939 480.711L307.988 500.865Z" fill="black" fill-opacity="0.11"/>
<path d="M307.988 438.163L295.311 445.628V453.092L317.683 439.656V414.277L311.717 418.009V432.192L275.922 412.038V370.983L288.599 378.448L295.311 374.716L272.939 362.026L250.567 374.716L256.532 378.448L269.956 370.983V412.038L234.16 432.192V418.009L228.195 414.277V439.656L250.567 453.092V445.628L237.143 438.163L272.939 418.009L307.988 438.163Z" fill="black" fill-opacity="0.11"/>
<path d="M288.599 315.746L295.311 312.014L272.939 298.578L250.567 312.014L256.532 315.746L269.956 308.282V349.336L234.16 369.49V354.562L228.195 350.829V376.955L250.567 389.644V382.18L237.143 374.716L272.939 354.562L307.988 374.716L295.311 382.18V389.644L317.683 376.955V350.829L311.717 354.562V369.49L275.922 349.336V308.282L288.599 315.746Z" fill="black" fill-opacity="0.11"/>
<path d="M288.599 252.299L295.311 248.566L272.939 235.877L250.567 248.566L256.532 252.299L269.956 244.834V285.889L234.16 306.043V291.114L228.195 287.382V313.507L250.567 326.943V319.479L237.143 312.014L272.939 291.114L307.988 312.014L295.311 319.479V326.943L317.683 313.507V287.382L311.717 291.114V306.043L275.922 285.889V244.834L288.599 252.299Z" fill="black" fill-opacity="0.11"/>
<path d="M288.599 189.597L295.311 185.865L272.939 172.429L250.567 185.865L256.532 189.597L269.956 182.133V222.441L234.16 243.341V228.412L228.195 224.68V250.806L250.567 263.495V256.031L237.143 248.566L272.939 228.412L307.988 248.566L295.311 256.031V263.495L317.683 250.806V224.68L311.717 228.412V243.341L275.922 222.441V182.133L288.599 189.597Z" fill="black" fill-opacity="0.11"/>
<path d="M272.939 109.728L250.567 122.417L256.532 126.149L269.956 118.685V159.739L234.16 179.893V164.965L228.195 161.232V187.358L250.567 200.794V193.329L237.143 185.865L272.939 164.965L307.988 185.865L295.311 193.329V200.794L317.683 187.358V161.232L311.717 164.965V179.893L275.922 159.739V118.685L288.599 126.149L295.311 122.417L272.939 109.728Z" fill="black" fill-opacity="0.11"/>
<path d="M269.956 55.9834V96.2915L234.16 117.192V102.263L228.195 98.5308V124.656L250.567 137.346V129.882L237.143 122.417L272.939 102.263L307.988 122.417L295.311 129.882V137.346L317.683 124.656V98.5308L311.717 102.263V117.192L275.922 96.2915V55.9834L288.599 63.4479L295.311 59.7156L272.939 46.2796L250.567 59.7156L256.532 63.4479L269.956 55.9834Z" fill="black" fill-opacity="0.11"/>
<path d="M234.16 53.7441V38.8152L228.195 35.0829V61.2085L250.567 74.6445V67.1801L237.143 59.7156L272.939 38.8152L307.988 59.7156L295.311 67.1801V74.6445L317.683 61.2085V35.0829L311.717 38.8152V53.7441L275.922 33.59V0H269.956V33.59L234.16 53.7441ZM295.311 11.1967L314.7 0H302.022L295.311 3.73223V11.1967ZM250.567 3.73223L243.855 0H231.178L250.567 11.1967V3.73223ZM317.683 540.427L311.717 544.159V559.088L275.922 538.187V497.133L288.599 504.597L295.311 500.865L272.939 488.175L250.567 500.865L256.532 504.597L269.956 497.133V538.187L234.16 559.088V544.159L228.195 540.427V565.806L250.567 579.242V571.777L237.143 564.313L272.939 544.159L307.988 564.313L295.311 571.777V579.242L317.683 565.806V540.427Z" fill="black" fill-opacity="0.11"/>
<path d="M317.683 603.128L311.717 606.86V621.789L275.922 601.635V560.581L288.599 568.045L295.311 564.313L272.939 551.623L250.567 564.313L256.532 568.045L269.956 560.581V601.635L234.16 621.789V606.86L228.195 603.128V629.254L231.178 630.746H243.855L237.143 627.761L272.939 606.86L307.988 627.761L302.022 630.746H314.7L317.683 629.254V603.128Z" fill="black" fill-opacity="0.11"/>
<path d="M272.939 614.325L250.567 627.761L256.532 630.746L269.956 624.028V630.746H275.921V624.028L288.599 630.746H289.345L295.311 627.761L272.939 614.325ZM362.427 532.962L349.749 540.426V547.891L372.121 534.455V508.329L366.155 512.062V526.99L330.36 506.836V465.782L343.783 473.246L349.749 469.514L327.377 456.825L305.005 469.514L311.717 473.246L324.394 465.782V506.836L288.599 526.99V512.062L282.633 508.329V534.455L305.005 547.891V540.426L292.328 532.962L327.377 512.062L362.427 532.962Z" fill="black" fill-opacity="0.11"/>
<path d="M343.783 410.545L349.749 406.813L327.377 393.377L305.005 406.813L311.717 410.545L324.394 403.081V443.389L288.599 464.289V449.36L282.633 445.628V471.753L305.005 484.443V476.979L292.328 469.514L327.377 449.36L362.427 469.514L349.749 476.979V484.443L372.121 471.753V445.628L366.155 449.36V464.289L330.36 443.389V403.081L343.783 410.545Z" fill="black" fill-opacity="0.11"/>
<path d="M343.783 347.097L349.749 343.365L327.377 330.675L305.005 343.365L311.717 347.097L324.394 339.633V380.687L288.599 400.841V385.912L282.633 382.18V408.306L305.005 421.742V414.277L292.328 406.813L327.377 385.912L362.427 406.813L349.749 414.277V421.742L372.121 408.306V382.18L366.155 385.912V400.841L330.36 380.687V339.633L343.783 347.097Z" fill="black" fill-opacity="0.11"/>
<path d="M343.783 283.649L349.749 280.664L327.377 267.228L305.005 280.664L311.717 283.649L324.394 276.931V317.239L288.599 338.14V323.211L282.633 319.479V345.604L305.005 358.294V350.829L292.328 343.365L327.377 323.211L362.427 343.365L349.749 350.829V358.294L372.121 345.604V319.479L366.155 323.211V338.14L330.36 317.239V276.931L343.783 283.649Z" fill="black" fill-opacity="0.11"/>
<path d="M343.783 220.948L349.749 217.216L327.377 204.526L305.005 217.216L311.717 220.948L324.394 213.483V254.538L288.599 274.692V259.763L282.633 256.031V282.156L305.005 294.846V287.382L292.328 280.664L327.377 259.763L362.427 280.664L349.749 287.382V294.846L372.121 282.156V256.031L366.155 259.763V274.692L330.36 254.538V213.483L343.783 220.948ZM330.36 529.23L343.783 536.694L349.749 532.962L327.377 519.526L305.005 532.962L311.717 536.694L324.394 529.23V569.538L288.599 590.438V575.51L282.633 571.777V597.903L305.005 610.592V603.128L292.328 595.664L327.377 575.51L362.427 595.664L349.749 603.128V610.592L372.121 597.903V571.777L366.155 575.51V590.438L330.36 569.538V529.23Z" fill="black" fill-opacity="0.11"/>
<path d="M343.783 599.396L349.749 595.663L327.377 582.974L305.005 595.663L311.717 599.396L324.394 591.931V630.746H330.36V591.931L343.783 599.396ZM343.783 157.5L349.749 153.768L327.377 141.078L305.005 153.768L311.717 157.5L324.394 150.035V191.09L288.599 211.99V197.062L282.633 193.329V218.708L305.005 232.144V224.68L292.328 217.216L327.377 197.062L362.427 217.216L349.749 224.68V232.144L372.121 218.708V193.329L366.155 197.062V211.99L330.36 191.09V150.035L343.783 157.5Z" fill="black" fill-opacity="0.11"/>
<path d="M288.599 148.543V133.614L282.633 129.882V156.007L305.005 168.697V161.232L292.328 153.768L327.377 133.614L362.427 153.768L349.749 161.232V168.697L372.121 156.007V129.882L366.155 133.614V148.543L330.36 128.389V87.3342L343.783 94.7986L349.749 91.0664L327.377 77.6304L305.005 91.0664L311.717 94.7986L324.394 87.3342V128.389L288.599 148.543Z" fill="black" fill-opacity="0.11"/>
<path d="M288.599 70.9124L282.633 67.1801V92.5593L305.005 105.995V98.5308L292.328 91.0664L327.377 70.9124L362.427 91.0664L349.749 98.5308V105.995L372.121 92.5593V67.1801L366.155 70.9124V85.0948L330.36 64.9408V23.8863L343.783 31.3508L349.749 27.6185L327.377 14.929L305.005 27.6185L311.717 31.3508L324.394 23.8863V64.9408L288.599 85.0948V70.9124Z" fill="black" fill-opacity="0.11"/>
<path d="M288.599 22.3934V7.46445L282.633 3.73223V29.8578L305.005 42.5474V35.0829L292.328 27.6185L327.377 7.46445L362.427 27.6185L349.749 35.0829V42.5474L372.121 29.8578V3.73223L366.155 7.46445V22.3934L330.36 1.49289V0H324.394V1.49289L288.599 22.3934ZM427.305 603.128L420.594 606.86V621.789L385.544 601.635V560.581L398.222 568.045L404.188 564.313L381.816 551.623L359.444 564.313L366.155 568.045L378.833 560.581V601.635L343.783 621.789V606.86L337.072 603.128V629.253L340.055 630.746H352.732L346.766 627.761L381.816 606.86L417.611 627.761L410.899 630.746H423.577L427.305 629.253V603.128Z" fill="black" fill-opacity="0.11"/>
<path d="M427.305 540.426L420.594 544.159V559.088L385.544 538.187V497.133L398.222 504.597L404.188 500.865L381.816 488.175L359.444 500.865L366.155 504.597L378.833 497.133V538.187L343.783 559.088V544.159L337.072 540.426V565.806L359.444 579.242V571.777L346.766 564.313L381.816 544.159L417.611 564.313L404.188 571.777V579.242L427.305 565.806V540.426Z" fill="black" fill-opacity="0.11"/>
<path d="M381.816 424.728L359.444 438.164L366.155 441.896L378.833 434.431V475.486L343.783 495.64V480.711L337.072 476.979V503.104L359.444 515.794V508.329L346.766 500.865L381.816 480.711L417.611 500.865L404.188 508.329V515.794L427.305 503.104V476.979L420.594 480.711V495.64L385.544 475.486V434.431L398.222 441.896L404.188 438.164L381.816 424.728Z" fill="black" fill-opacity="0.11"/>
<path d="M359.444 374.716L366.155 378.448L378.833 370.983V412.038L343.783 432.192V418.009L337.072 414.277V439.656L359.444 453.092V445.628L346.766 438.163L381.816 418.009L417.611 438.163L404.188 445.628V453.092L427.305 439.656V414.277L420.594 418.009V432.192L385.544 412.038V370.983L398.222 378.448L404.188 374.716L381.816 362.026L359.444 374.716Z" fill="black" fill-opacity="0.11"/>
<path d="M381.816 298.578L359.444 312.014L366.155 315.746L378.833 308.282V349.336L343.783 369.49V354.562L337.072 350.829V376.955L359.444 389.644V382.18L346.766 374.716L381.816 354.562L417.611 374.716L404.188 382.18V389.644L427.305 376.955V350.829L420.594 354.562V369.49L385.544 349.336V308.282L398.222 315.746L404.188 312.014L381.816 298.578Z" fill="black" fill-opacity="0.11"/>
<path d="M381.816 235.877L359.444 248.566L366.155 252.299L378.833 244.834V285.889L343.783 306.043V291.114L337.072 287.382V313.507L359.444 326.943V319.479L346.766 312.014L381.816 291.114L417.611 312.014L404.188 319.479V326.943L427.305 313.507V287.382L420.594 291.114V306.043L385.544 285.889V244.834L398.222 252.299L404.188 248.566L381.816 235.877Z" fill="black" fill-opacity="0.11"/>
<path d="M381.816 172.429L359.444 185.865L366.155 189.597L378.833 182.133V222.441L343.783 243.341V228.412L337.072 224.68V250.806L359.444 263.495V256.031L346.766 248.566L381.816 228.412L417.611 248.566L404.188 256.031V263.495L427.305 250.806V224.68L420.594 228.412V243.341L385.544 222.441V182.133L398.222 189.597L404.188 185.865L381.816 172.429Z" fill="black" fill-opacity="0.11"/>
<path d="M381.816 109.728L359.444 122.417L366.155 126.149L378.833 118.685V159.739L343.783 179.893V164.965L337.072 161.232V187.358L359.444 200.794V193.329L346.766 185.865L381.816 164.965L417.611 185.865L404.188 193.329V200.794L427.305 187.358V161.232L420.594 164.965V179.893L385.544 159.739V118.685L398.222 126.149L404.188 122.417L381.816 109.728Z" fill="black" fill-opacity="0.11"/>
<path d="M378.833 55.9835V96.2915L343.783 117.192V102.263L337.072 98.5308V124.656L359.444 137.346V129.882L346.766 122.417L381.816 102.263L417.611 122.417L404.188 129.882V137.346L427.305 124.656V98.5308L420.594 102.263V117.192L385.544 96.2915V55.9835L398.222 63.4479L404.188 59.7157L381.816 46.2797L359.444 59.7157L366.155 63.4479L378.833 55.9835Z" fill="black" fill-opacity="0.11"/>
<path d="M343.783 53.7441V38.8152L337.072 35.0829V61.2085L359.444 73.8981V67.1801L346.766 59.7156L381.816 38.8152L417.611 59.7156L404.188 67.1801V73.8981L427.305 61.2085V35.0829L420.594 38.8152V53.7441L385.544 33.59V0H378.833V33.59L343.783 53.7441ZM359.444 3.73223L353.478 0H340.055L359.444 11.1967V3.73223ZM404.188 11.1967L423.577 0H410.899L404.188 3.73223V11.1967ZM381.816 614.325L359.444 627.761L366.155 630.746L378.833 624.028V630.746H385.544V624.028L398.222 630.746L404.188 627.761L381.816 614.325ZM420.594 536.694L433.271 529.23V569.538L398.222 590.438V575.509L391.51 571.777V597.903L413.882 610.592V603.128L401.205 595.663L437 575.509V519.526L413.882 532.962L420.594 536.694Z" fill="black" fill-opacity="0.11"/>
<path d="M420.594 473.246L433.271 465.782V506.836L398.222 526.99V512.062L391.51 508.329V534.455L413.882 547.891V540.426L401.205 532.962L437 512.062V456.825L413.882 469.514L420.594 473.246Z" fill="black" fill-opacity="0.11"/>
<path d="M420.594 410.545L433.271 403.081V443.389L398.222 464.289V449.36L391.51 445.628V471.753L413.882 484.443V476.979L401.205 469.514L437 449.36V393.377L413.882 406.813L420.594 410.545Z" fill="black" fill-opacity="0.11"/>
<path d="M420.594 347.097L433.271 339.633V380.687L398.222 400.841V385.912L391.51 382.18V408.306L413.882 421.742V414.277L401.205 406.813L437 385.912V330.675L413.882 343.365L420.594 347.097Z" fill="black" fill-opacity="0.11"/>
<path d="M420.594 283.649L433.271 276.931V317.239L398.222 338.14V323.211L391.51 319.479V345.604L413.882 358.294V350.829L401.205 343.365L437 323.211V267.228L413.882 280.664L420.594 283.649Z" fill="black" fill-opacity="0.11"/>
<path d="M420.594 220.948L433.271 213.483V254.538L398.222 274.692V259.763L391.51 256.031V282.156L413.882 294.846V287.382L401.205 280.664L437 259.763V204.526L413.882 217.216L420.594 220.948Z" fill="black" fill-opacity="0.11"/>
<path d="M420.594 157.5L433.271 150.035V191.09L398.222 211.99V197.062L391.51 193.329V218.708L413.882 232.144V224.68L401.205 217.216L437 197.062V141.078L413.882 153.768L420.594 157.5Z" fill="black" fill-opacity="0.11"/>
<path d="M420.594 94.7986L433.271 87.3342V128.389L398.222 148.543V133.614L391.51 129.882V156.007L413.882 168.697V161.232L401.205 153.768L437 133.614V77.6304L413.882 91.0664L420.594 94.7986Z" fill="black" fill-opacity="0.11"/>
<path d="M420.594 31.3508L433.271 23.8863V64.9408L398.222 85.0948V70.9124L391.51 67.1801V92.5593L413.882 105.995V98.5308L401.205 91.0664L437 70.9124V14.929L413.882 27.6185L420.594 31.3508Z" fill="black" fill-opacity="0.11"/>
<path d="M398.222 22.3934V7.46445L391.51 3.73223V29.8578L413.882 42.5474V35.0829L401.205 27.6185L437 7.46445V0H433.271V1.49289L398.222 22.3934ZM413.882 595.663L420.594 599.396L433.271 591.931V630.746H437V582.974L413.882 595.663ZM221.483 529.23L234.16 536.694L240.872 532.962L218.5 519.526L195.382 532.962L202.094 536.694L214.771 529.23V569.538L179.722 590.438V575.509L173.01 571.777V597.903L195.382 610.592V603.128L182.705 595.663L218.5 575.509L253.549 595.663L240.872 603.128V610.592L263.244 597.903V571.777L256.532 575.509V590.438L221.483 569.538V529.23Z" fill="black" fill-opacity="0.11"/>
<path d="M253.55 532.962L240.872 540.426V547.891L263.244 534.455V508.329L256.532 512.062V526.99L221.483 506.836V465.782L234.16 473.246L240.872 469.514L218.5 456.825L195.382 469.514L202.094 473.246L214.771 465.782V506.836L179.722 526.99V512.062L173.01 508.329V534.455L195.382 547.891V540.426L182.705 532.962L218.5 512.062L253.55 532.962Z" fill="black" fill-opacity="0.11"/>
<path d="M253.55 469.514L240.872 476.979V484.443L263.244 471.753V445.628L256.532 449.36V464.289L221.483 443.389V403.081L234.16 410.545L240.872 406.813L218.5 393.377L195.382 406.813L202.094 410.545L214.771 403.081V443.389L179.722 464.289V449.36L173.01 445.628V471.753L195.382 484.443V476.979L182.705 469.514L218.5 449.36L253.55 469.514Z" fill="black" fill-opacity="0.11"/>
<path d="M253.55 406.813L240.872 414.277V421.742L263.244 408.306V382.18L256.532 385.912V400.841L221.483 380.687V339.633L234.16 347.097L240.872 343.365L218.5 330.675L195.382 343.365L202.094 347.097L214.771 339.633V380.687L179.722 400.841V385.912L173.01 382.18V408.306L195.382 421.742V414.277L182.705 406.813L218.5 385.912L253.55 406.813Z" fill="black" fill-opacity="0.11"/>
<path d="M253.55 343.365L240.872 350.829V358.294L263.244 345.604V319.479L256.532 323.211V338.14L221.483 317.239V276.931L234.16 283.649L240.872 280.664L218.5 267.228L195.382 280.664L202.094 283.649L214.771 276.931V317.239L179.722 338.14V323.211L173.01 319.479V345.604L195.382 358.294V350.829L182.705 343.365L218.5 323.211L253.55 343.365Z" fill="black" fill-opacity="0.11"/>
<path d="M253.55 280.664L240.872 287.382V294.846L263.244 282.156V256.031L256.532 259.763V274.692L221.483 254.538V213.483L234.16 220.948L240.872 217.216L218.5 204.526L195.382 217.216L202.094 220.948L214.771 213.483V254.538L179.722 274.692V259.763L173.01 256.031V282.156L195.382 294.846V287.382L182.705 280.664L218.5 259.763L253.55 280.664Z" fill="black" fill-opacity="0.11"/>
<path d="M179.722 211.99V197.062L173.01 193.329V218.708L195.382 232.144V224.68L182.705 217.216L218.5 197.062L253.55 217.216L240.872 224.68V232.144L263.244 218.708V193.329L256.532 197.062V211.99L221.483 191.09V150.035L234.16 157.5L240.872 153.768L218.5 141.078L195.382 153.768L202.094 157.5L214.771 150.035V191.09L179.722 211.99Z" fill="black" fill-opacity="0.11"/>
<path d="M179.722 148.543V133.614L173.01 129.882V156.007L195.382 168.697V161.232L182.705 153.768L218.5 133.614L253.55 153.768L240.872 161.232V168.697L263.244 156.007V129.882L256.532 133.614V148.543L221.483 128.389V87.3342L234.16 94.7986L240.872 91.0664L218.5 77.6304L195.382 91.0664L202.094 94.7986L214.771 87.3342V128.389L179.722 148.543Z" fill="black" fill-opacity="0.11"/>
<path d="M179.722 70.9124L173.01 67.1801V92.5593L195.382 105.995V98.5308L182.705 91.0664L218.5 70.9124L253.55 91.0664L240.872 98.5308V105.995L263.244 92.5593V67.1801L256.532 70.9124V85.0948L221.483 64.9408V23.8863L234.16 31.3508L240.872 27.6185L218.5 14.929L195.382 27.6185L202.094 31.3508L214.771 23.8863V64.9408L179.722 85.0948V70.9124Z" fill="black" fill-opacity="0.11"/>
<path d="M179.722 22.3934V7.46445L173.01 3.73223V29.8578L195.382 42.5474V35.0829L182.705 27.6185L218.5 7.46445L253.549 27.6185L240.872 35.0829V42.5474L263.244 29.8578V3.73223L256.532 7.46445V22.3934L221.483 1.49289V0H214.771V1.49289L179.722 22.3934ZM234.16 599.396L240.872 595.663L218.5 582.974L195.382 595.663L202.094 599.396L214.771 591.931V630.746H221.483V591.931L234.16 599.396ZM199.111 438.163L186.433 445.628V453.092L208.805 439.656V414.277L202.094 418.009V432.192L167.044 412.038V370.983L179.722 378.448L186.433 374.716L163.316 362.026L140.944 374.716L147.655 378.448L160.333 370.983V412.038L125.283 432.192V418.009L118.572 414.277V439.656L140.944 453.092V445.628L128.266 438.163L163.316 418.009L199.111 438.163Z" fill="black" fill-opacity="0.11"/>
<path d="M199.111 374.716L186.433 382.18V389.644L208.805 376.955V350.829L202.094 354.562V369.49L167.044 349.336V308.282L179.722 315.746L186.433 312.014L163.316 298.578L140.944 312.014L147.655 315.746L160.333 308.282V349.336L125.283 369.49V354.562L118.572 350.829V376.955L140.944 389.644V382.18L128.266 374.716L163.316 354.562L199.111 374.716Z" fill="black" fill-opacity="0.11"/>
<path d="M199.111 312.014L186.433 319.479V326.943L208.805 313.507V287.382L202.094 291.114V306.043L167.044 285.889V244.834L179.722 252.299L186.433 248.566L163.316 235.877L140.944 248.566L147.655 252.299L160.333 244.834V285.889L125.283 306.043V291.114L118.572 287.382V313.507L140.944 326.943V319.479L128.266 312.014L163.316 291.114L199.111 312.014Z" fill="black" fill-opacity="0.11"/>
<path d="M199.111 248.566L186.433 256.031V263.495L208.805 250.806V224.68L202.094 228.412V243.341L167.044 222.441V182.133L179.722 189.597L186.433 185.865L163.316 172.429L140.944 185.865L147.655 189.597L160.333 182.133V222.441L125.283 243.341V228.412L118.572 224.68V250.806L140.944 263.495V256.031L128.266 248.566L163.316 228.412L199.111 248.566Z" fill="black" fill-opacity="0.11"/>
<path d="M163.316 109.728L140.944 122.417L147.655 126.149L160.333 118.685V159.739L125.283 179.893V164.965L118.572 161.232V187.358L140.944 200.794V193.329L128.266 185.865L163.316 164.965L199.111 185.865L186.433 193.329V200.794L208.805 187.358V161.232L202.094 164.965V179.893L167.044 159.739V118.685L179.722 126.149L186.433 122.417L163.316 109.728Z" fill="black" fill-opacity="0.11"/>
<path d="M160.333 55.9835V96.2915L125.283 117.192V102.263L118.572 98.5308V124.656L140.944 137.346V129.882L128.266 122.417L163.316 102.263L199.111 122.417L186.433 129.882V137.346L208.805 124.656V98.5308L202.094 102.263V117.192L167.044 96.2915V55.9835L179.722 63.4479L186.433 59.7157L163.316 46.2797L140.944 59.7157L147.655 63.4479L160.333 55.9835Z" fill="black" fill-opacity="0.11"/>
<path d="M125.283 53.7441V38.8152L118.572 35.0829V61.2085L140.944 73.8981V67.1801L128.266 59.7156L163.316 38.8152L199.111 59.7156L186.433 67.1801V73.8981L208.805 61.2085V35.0829L202.094 38.8152V53.7441L167.044 33.59V0H160.333V33.59L125.283 53.7441ZM140.944 3.73223L134.978 0H121.555L140.944 11.1967V3.73223ZM186.433 11.1967L205.077 0H192.399L186.433 3.73223V11.1967ZM163.316 614.325L140.944 627.761L147.655 630.746L160.333 624.028V630.746H167.044V624.028L179.722 630.746L186.433 627.761L163.316 614.325Z" fill="black" fill-opacity="0.11"/>
<path d="M208.805 603.128L202.094 606.86V621.789L167.044 601.635V560.581L179.722 568.045L186.433 564.313L163.316 551.623L140.944 564.313L147.655 568.045L160.333 560.581V601.635L125.283 621.789V606.86L118.572 603.128V629.254L121.555 630.746H134.978L128.266 627.761L163.316 606.86L199.111 627.761L192.399 630.746H205.823L208.805 629.254V603.128Z" fill="black" fill-opacity="0.11"/>
<path d="M208.805 540.426L202.094 544.159V559.088L167.044 538.187V497.133L179.722 504.597L186.433 500.865L163.316 488.175L140.944 500.865L147.655 504.597L160.333 497.133V538.187L125.283 559.088V544.159L118.572 540.426V565.806L140.944 579.242V571.777L128.266 564.313L163.316 544.159L199.111 564.313L186.433 571.777V579.242L208.805 565.806V540.426Z" fill="black" fill-opacity="0.11"/>
<path d="M199.111 500.865L186.433 508.329V515.794L208.805 503.104V476.979L202.094 480.711V495.64L167.044 475.486V434.431L179.722 441.896L186.433 438.163L163.316 424.727L140.944 438.163L147.655 441.896L160.333 434.431V475.486L125.283 495.64V480.711L118.572 476.979V503.104L140.944 515.794V508.329L128.266 500.865L163.316 480.711L199.111 500.865ZM70.8447 22.3934V7.46445L64.1331 3.73223V29.8578L86.5051 42.5474V35.0829L73.8276 27.6185L108.877 7.46445L144.672 27.6185L131.249 35.0829V42.5474L153.621 29.8578V3.73223L147.655 7.46445V22.3934L111.86 1.49289V0H105.894V1.49289L70.8447 22.3934Z" fill="black" fill-opacity="0.11"/>
<path d="M70.8447 70.9124L64.1331 67.1801V92.5593L86.5051 105.995V98.5308L73.8276 91.0664L108.877 70.9124L144.672 91.0664L131.249 98.5308V105.995L153.621 92.5593V67.1801L147.655 70.9124V85.0948L111.86 64.9408V23.8863L125.283 31.3508L131.249 27.6185L108.877 14.929L86.5051 27.6185L93.2167 31.3508L105.894 23.8863V64.9408L70.8447 85.0948V70.9124Z" fill="black" fill-opacity="0.11"/>
<path d="M144.672 153.768L131.249 161.232V168.697L153.621 156.007V129.882L147.655 133.614V148.543L111.86 128.389V87.3342L125.283 94.7986L131.249 91.0664L108.877 77.6304L86.5051 91.0664L93.2167 94.7986L105.894 87.3342V128.389L70.8447 148.543V133.614L64.1331 129.882V156.007L86.5051 168.697V161.232L73.8276 153.768L108.877 133.614L144.672 153.768Z" fill="black" fill-opacity="0.11"/>
<path d="M144.672 217.216L131.249 224.68V232.144L153.621 218.708V193.329L147.655 197.062V211.99L111.86 191.09V150.035L125.283 157.5L131.249 153.768L108.877 141.078L86.5051 153.768L93.2167 157.5L105.894 150.035V191.09L70.8447 211.99V197.062L64.1331 193.329V218.708L86.5051 232.144V224.68L73.8276 217.216L108.877 197.062L144.672 217.216Z" fill="black" fill-opacity="0.11"/>
<path d="M144.672 280.664L131.249 287.382V294.846L153.621 282.156V256.031L147.655 259.763V274.692L111.86 254.538V213.483L125.283 220.948L131.249 217.216L108.877 204.526L86.5051 217.216L93.2167 220.948L105.894 213.483V254.538L70.8447 274.692V259.763L64.1331 256.031V282.156L86.5051 294.846V287.382L73.8276 280.664L108.877 259.763L144.672 280.664Z" fill="black" fill-opacity="0.11"/>
<path d="M144.672 343.365L131.249 350.829V358.294L153.621 345.604V319.479L147.655 323.211V338.14L111.86 317.239V276.931L125.283 283.649L131.249 280.664L108.877 267.228L86.5051 280.664L93.2167 283.649L105.894 276.931V317.239L70.8447 338.14V323.211L64.1331 319.479V345.604L86.5051 358.294V350.829L73.8276 343.365L108.877 323.211L144.672 343.365Z" fill="black" fill-opacity="0.11"/>
<path d="M144.672 406.813L131.249 414.277V421.742L153.621 408.306V382.18L147.655 385.912V400.841L111.86 380.687V339.633L125.283 347.097L131.249 343.365L108.877 330.675L86.5051 343.365L93.2167 347.097L105.894 339.633V380.687L70.8447 400.841V385.912L64.1331 382.18V408.306L86.5051 421.742V414.277L73.8276 406.813L108.877 385.912L144.672 406.813Z" fill="black" fill-opacity="0.11"/>
<path d="M144.672 469.514L131.249 476.979V484.443L153.621 471.753V445.628L147.655 449.36V464.289L111.86 443.389V403.081L125.283 410.545L131.249 406.813L108.877 393.377L86.5051 406.813L93.2167 410.545L105.894 403.081V443.389L70.8447 464.289V449.36L64.1331 445.628V471.753L86.5051 484.443V476.979L73.8276 469.514L108.877 449.36L144.672 469.514Z" fill="black" fill-opacity="0.11"/>
<path d="M144.672 532.962L131.249 540.426V547.891L153.621 534.455V508.329L147.655 512.062V526.99L111.86 506.836V465.782L125.283 473.246L131.249 469.514L108.877 456.825L86.5051 469.514L93.2167 473.246L105.894 465.782V506.836L70.8447 526.99V512.062L64.1331 508.329V534.455L86.5051 547.891V540.426L73.8276 532.962L108.877 512.062L144.672 532.962Z" fill="black" fill-opacity="0.11"/>
<path d="M111.86 529.23L125.283 536.694L131.249 532.962L108.877 519.526L86.5051 532.962L93.2167 536.694L105.894 529.23V569.538L70.8447 590.438V575.509L64.1331 571.777V597.903L86.5051 610.592V603.128L73.8276 595.663L108.877 575.509L144.672 595.663L131.249 603.128V610.592L153.621 597.903V571.777L147.655 575.509V590.438L111.86 569.538V529.23Z" fill="black" fill-opacity="0.11"/>
<path d="M125.283 599.396L131.249 595.664L108.877 582.974L86.5052 595.664L93.2168 599.396L105.894 591.931V630.746H111.86V591.931L125.283 599.396ZM54.4386 291.114L89.4881 312.014L76.8106 319.479V326.943L99.1826 313.507V287.382L93.2168 291.114V306.043L57.4215 285.889V244.834L70.8447 252.299L76.8106 248.566L54.4386 235.877L32.0666 248.566L38.0325 252.299L51.4557 244.834V285.889L15.6604 306.043V291.114L9.69458 287.382V313.507L32.0666 326.943V319.479L19.3891 312.014L54.4386 291.114Z" fill="black" fill-opacity="0.11"/>
<path d="M54.4386 354.562L89.4881 374.716L76.8106 382.18V389.644L99.1826 376.955V350.829L93.2168 354.562V369.49L57.4215 349.336V308.282L70.8448 315.746L76.8106 312.014L54.4386 298.578L32.0666 312.014L38.0325 315.746L51.4557 308.282V349.336L15.6605 369.49V354.562L9.69458 350.829V376.955L32.0666 389.644V382.18L19.3891 374.716L54.4386 354.562Z" fill="black" fill-opacity="0.11"/>
<path d="M54.4386 418.009L89.4881 438.163L76.8106 445.628V453.092L99.1826 439.656V414.277L93.2168 418.009V432.192L57.4215 412.038V370.983L70.8448 378.448L76.8106 374.716L54.4386 362.026L32.0666 374.716L38.0325 378.448L51.4557 370.983V412.038L15.6605 432.192V418.009L9.69458 414.277V439.656L32.0666 453.092V445.628L19.3891 438.163L54.4386 418.009Z" fill="black" fill-opacity="0.11"/>
<path d="M54.4386 480.711L89.4881 500.865L76.8106 508.329V515.794L99.1826 503.104V476.979L93.2168 480.711V495.64L57.4215 475.486V434.431L70.8448 441.896L76.8106 438.164L54.4386 424.728L32.0666 438.164L38.0325 441.896L51.4557 434.431V475.486L15.6605 495.64V480.711L9.69458 476.979V503.104L32.0666 515.794V508.329L19.3891 500.865L54.4386 480.711Z" fill="black" fill-opacity="0.11"/>
<path d="M99.1826 540.426L93.2168 544.159V559.088L57.4215 538.187V497.133L70.8448 504.597L76.8106 500.865L54.4386 488.175L32.0666 500.865L38.0325 504.597L51.4557 497.133V538.187L15.6605 559.088V544.159L9.69458 540.426V565.806L32.0666 579.242V571.777L19.3891 564.313L54.4386 544.159L89.4881 564.313L76.8106 571.777V579.242L99.1826 565.806V540.426Z" fill="black" fill-opacity="0.11"/>
<path d="M99.1826 603.128L93.2168 606.86V621.789L57.4215 601.635V560.581L70.8448 568.045L76.8106 564.313L54.4386 551.623L32.0666 564.313L38.0325 568.045L51.4557 560.581V601.635L15.6605 621.789V606.86L9.69458 603.128V629.254L12.6775 630.746H25.355L19.3891 627.761L54.4386 606.86L89.4881 627.761L83.5222 630.746H96.1997L99.1826 629.254V603.128Z" fill="black" fill-opacity="0.11"/>
<path d="M54.4386 614.325L32.0666 627.761L38.0325 630.746H38.7782L51.4557 624.028V630.746H57.4215V624.028L70.099 630.746H70.8448L76.8106 627.761L54.4386 614.325ZM54.4386 228.412L89.4881 248.566L76.8106 256.031V263.495L99.1826 250.806V224.68L93.2168 228.412V243.341L57.4215 222.441V182.133L70.8448 189.597L76.8106 185.865L54.4386 172.429L32.0666 185.865L38.0325 189.597L51.4557 182.133V222.441L15.6605 243.341V228.412L9.69458 224.68V250.806L32.0666 263.495V256.031L19.3891 248.566L54.4386 228.412Z" fill="black" fill-opacity="0.11"/>
<path d="M54.4386 164.965L89.4881 185.865L76.8106 193.329V200.794L99.1826 187.358V161.232L93.2168 164.965V179.893L57.4215 159.739V118.685L70.8448 126.149L76.8106 122.417L54.4386 109.728L32.0666 122.417L38.0325 126.149L51.4557 118.685V159.739L15.6605 179.893V164.965L9.69458 161.232V187.358L32.0666 200.794V193.329L19.3891 185.865L54.4386 164.965Z" fill="black" fill-opacity="0.11"/>
<path d="M54.4386 102.263L89.4881 122.417L76.8106 129.882V137.346L99.1826 124.656V98.5308L93.2168 102.263V117.192L57.4215 96.2915V55.9835L70.8448 63.4479L76.8106 59.7157L54.4386 46.2797L32.0666 59.7157L38.0325 63.4479L51.4557 55.9835V96.2915L15.6605 117.192V102.263L9.69458 98.5308V124.656L32.0666 137.346V129.882L19.3891 122.417L54.4386 102.263Z" fill="black" fill-opacity="0.11"/>
<path d="M15.6604 53.7441V38.8152L9.69454 35.0829V61.2085L32.0666 73.8981V67.1801L19.3891 59.7156L54.4386 38.8152L89.4881 59.7156L76.8106 67.1801V73.8981L99.1826 61.2085V35.0829L93.2167 38.8152V53.7441L57.4215 33.59V0H51.4556V33.59L15.6604 53.7441ZM76.8106 11.1967L96.1997 0H83.5222L76.8106 3.73223V11.1967ZM32.0666 3.73223L25.3549 0H12.6775L32.0666 11.1967V3.73223ZM22.372 414.277V421.742L44.744 408.306V382.18L38.0324 385.912V400.841L2.98293 380.687V339.633L15.6604 347.097L22.372 343.365L0 330.675V385.912L35.0495 406.813L22.372 414.277Z" fill="black" fill-opacity="0.11"/>
<path d="M22.372 476.979V484.443L44.744 471.753V445.628L38.0324 449.36V464.289L2.98294 443.389V403.081L15.6604 410.545L22.372 406.813L0 393.377V449.36L35.0495 469.514L22.372 476.979Z" fill="black" fill-opacity="0.11"/>
<path d="M22.372 540.426V547.891L44.744 534.455V508.329L38.0324 512.062V526.99L2.98294 506.836V465.782L15.6604 473.246L22.372 469.514L0 456.825V512.808L35.0495 532.962L22.372 540.426Z" fill="black" fill-opacity="0.11"/>
<path d="M22.372 603.128V610.592L44.744 597.903V571.777L38.0324 575.509V590.438L2.98294 569.538V529.23L15.6604 536.694L22.372 532.962L0 519.526V575.509L35.0495 595.663L22.372 603.128Z" fill="black" fill-opacity="0.11"/>
<path d="M15.6604 599.396L22.372 595.664L0 582.974V630.746H2.98294V591.931L15.6604 599.396ZM22.372 350.829V358.294L44.744 345.604V319.479L38.0324 323.211V338.14L2.98294 317.239V276.931L15.6604 283.649L22.372 280.664L0 267.228V323.211L35.0495 343.365L22.372 350.829Z" fill="black" fill-opacity="0.11"/>
<path d="M22.372 287.382V294.846L44.744 282.156V256.031L38.0324 259.763V274.692L2.98294 254.538V213.483L15.6604 220.948L22.372 217.216L0 204.526V259.763L35.0495 280.664L22.372 287.382Z" fill="black" fill-opacity="0.11"/>
<path d="M22.372 224.68V232.144L44.744 218.708V193.329L38.0324 197.062V211.99L2.98294 191.09V150.035L15.6604 157.5L22.372 153.768L0 141.078V197.062L35.0495 217.216L22.372 224.68Z" fill="black" fill-opacity="0.11"/>
<path d="M22.372 161.232V168.697L44.744 156.007V129.882L38.0324 133.614V148.543L2.98294 128.389V87.3342L15.6604 94.7986L22.372 91.0664L0 78.3768V133.614L35.0495 153.768L22.372 161.232Z" fill="black" fill-opacity="0.11"/>
<path d="M22.372 98.5308V105.995L44.744 92.5593V67.1801L38.0324 70.9124V85.0948L2.98294 64.9408V23.8863L15.6604 31.3508L22.372 27.6185L0 14.929V70.9124L35.0495 91.0664L22.372 98.5308Z" fill="black" fill-opacity="0.11"/>
<path d="M22.372 35.0829V42.5474L44.744 29.8578V3.73223L38.0324 7.46445V22.3934L2.98294 1.49289V0H0V7.46445L35.0495 27.6185L22.372 35.0829Z" fill="black" fill-opacity="0.11"/>
</g>
<defs>
<clipPath id="clip0_1_1265">
<rect width="437" height="630" fill="white"/>
</clipPath>
</defs>
</svg>
